Coordinates
version=1
nRows=7
nColumns=40
inDegrees=yes

Units are S.I. units (second, meters, Newtons, ...)
If the header above contains a line with 'inDegrees', this indicates whether rotational values are in degrees (yes) or radians (no).

endheader
time	pelvis_tilt	pelvis_list	pelvis_rotation	pelvis_tx	pelvis_ty	pelvis_tz	hip_flexion_r	hip_adduction_r	hip_rotation_r	knee_angle_r	knee_angle_r_beta	ankle_angle_r	subtalar_angle_r	mtp_angle_r	hip_flexion_l	hip_adduction_l	hip_rotation_l	knee_angle_l	knee_angle_l_beta	ankle_angle_l	subtalar_angle_l	mtp_angle_l	lumbar_extension	lumbar_bending	lumbar_rotation	arm_flex_r	arm_add_r	arm_rot_r	elbow_flex_r	pro_sup_r	wrist_flex_r	wrist_dev_r	arm_flex_l	arm_add_l	arm_rot_l	elbow_flex_l	pro_sup_l	wrist_flex_l	wrist_dev_l
      5.00000000000000000000	     45.14221934053098550521	     -1.46075561194017455868	   -175.38339734675574277389	      0.42407149090962853455	      0.59161218963751061040	     -0.62177722111907496316	    113.85989965003450663517	    -11.22104817423778122532	      5.31252288527991112232	     81.84459951970863755832	      1.42845773659508545883	     17.72551392905397804611	      0.00000000000000000000	      0.00000000000000000000	    111.22461573268759593702	     -5.28857738506542141010	     -0.50895709795752042126	     78.66485474917007536533	      1.37296072097611587814	     15.22098609621844289563	      0.00000000000000000000	      0.00000000000000000000	    -18.39998256058682457592	      0.11549799837056427820	      0.96620350479563188451	     61.51169941625434489652	     -9.19240026422117395555	     34.07430332267698247506	      1.03314174261701752222	     86.56138896052009101822	      0.00000000000000000000	      0.00000000000000000000	     53.98913374243900875626	     -0.72566630470739945657	     39.15476638957618149561	      0.62888774649171086395	      2.74568733506762541197	      0.00000000000000000000	      0.00000000000000000000
      5.00499999999999989342	     45.23327309102132431917	     -1.44870696648480823399	   -175.51565292221681602314	      0.42366640039188330213	      0.59260417417808208818	     -0.62201337734542949676	    113.75685964022723339895	    -11.10062644802815690070	      5.19551803492047259425	     81.63976691498298521310	      1.42488273322718672631	     17.62064659192815341271	      0.00000000000000000000	      0.00000000000000000000	    111.13669535777087560291	     -5.26006442574470334250	     -0.25824295005848657558	     78.47721045876544110342	      1.36968571028598673500	     15.30109070112139590947	      0.00000000000000000000	      0.00000000000000000000	    -18.44520672135704586481	      0.10564622626597072741	      1.06449392424440403282	     61.56085636482406187042	     -9.16021182338772455012	     33.71208927007312894375	      1.02718047454722216649	     86.63790248371124391724	      0.00000000000000000000	      0.00000000000000000000	     54.19255712023886673023	     -0.69922562751979167039	     37.84625489662079189657	      0.63373832590286882649	      2.71992482996158857489	      0.00000000000000000000	      0.00000000000000000000
      5.00999999999999978684	     45.37864341924741040657	     -1.38616070822325321288	   -175.70101185459827775048	      0.42352115188030292625	      0.59362112581028558811	     -0.62231123297549950646	    113.66523267357617044127	    -10.92800124763336810929	      5.01891815444306743643	     81.34699332805979565819	      1.41977287017250319856	     17.59599652777255229807	      0.00000000000000000000	      0.00000000000000000000	    111.13752113714497227193	     -5.41737189987556266857	     -0.13252943256368937552	     78.27920021513963888538	      1.36622977958204017135	     15.25039655425150542101	      0.00000000000000000000	      0.00000000000000000000	    -18.43272974468896308053	      0.14429348114826756611	      1.24548485377826478882	     61.60681794776269271097	     -9.16165297036026160526	     33.99736703857619346536	      1.02830543291057563415	     86.54816132252001636971	      0.00000000000000000000	      0.00000000000000000000	     54.04677667756192249726	     -0.73592026149427736126	     38.90161609168745115994	      0.62940121586641040174	      2.75173162533750881309	      0.00000000000000000000	      0.00000000000000000000
      5.01499999999999968026	     45.47377868093914088377	     -1.42378405908135441393	   -175.73261314754384443404	      0.42322832157034812051	      0.59471101856144303888	     -0.62217276807885568690	    113.58913119911798617068	    -10.92574714863392060238	      4.99213722140768201285	     81.12877591717933967175	      1.41596425786746205056	     17.52326388785603583642	      0.00000000000000000000	      0.00000000000000000000	    111.04978221159950635410	     -5.44928022366782460750	     -0.21747455604945420404	     78.09079358997432507294	      1.36294146364033474939	     15.20812473476232540293	      0.00000000000000000000	      0.00000000000000000000	    -18.48619731612233252349	      0.15758310739703154657	      1.22094197434674378577	     61.67295477984972507102	     -9.13934208393003366666	     34.16124985046153739177	      1.02922414501720060898	     86.54203085626937763664	      0.00000000000000000000	      0.00000000000000000000	     54.00931290289781827596	     -0.75290066507591657530	     39.15186629987742605863	      0.62644249961725462228	      2.76634650370086010440	      0.00000000000000000000	      0.00000000000000000000
      5.01999999999999957367	     45.59537370070059836280	     -1.48583308521997992102	   -175.76316720412236804805	      0.42293212510921768255	      0.59579884965503659977	     -0.62200087463814368594	    113.53322071010592253515	    -10.92547517727413897148	      4.97866904152043598941	     80.89494297089257202060	      1.41188310305511888210	     17.47146661339767703680	      0.00000000000000000000	      0.00000000000000000000	    110.97647274351425039640	     -5.44905818663133345581	     -0.26383413381080583759	     77.87270964214636137513	      1.35913518070498917645	     15.15004507203500061507	      0.00000000000000000000	      0.00000000000000000000	    -18.51306048493142597522	      0.12444925546767260371	      1.22935707222495449464	     61.72102975203296892914	     -9.16621163408736094880	     33.95068645773123705567	      1.03384437176260712832	     86.60706746242229314703	      0.00000000000000000000	      0.00000000000000000000	     54.06171504360723645277	     -0.71030504982341147180	     38.92049039559624645790	      0.62804903972787129440	      2.72360935257787950547	      0.00000000000000000000	      0.00000000000000000000
      5.02500000000000035527	     45.72985941161693546064	     -1.53859543357831118904	   -175.80626463775507772880	      0.42276347030788591352	      0.59687874349803315965	     -0.62183330860276242458	    113.49175457251774901124	    -10.90161758788459778202	      4.98057393632796863159	     80.63858533244928139538	      1.40740881820164620564	     17.35996451589726063958	      0.00000000000000000000	      0.00000000000000000000	    110.91432487046411381471	     -5.45690364211080058965	     -0.31092258494026830951	     77.64364704097613412159	      1.35513728412138623192	     15.07142788823671253340	      0.00000000000000000000	      0.00000000000000000000	    -18.53114979547263274640	      0.11602245500411431656	      1.19193911540501895630	     61.79168792477777572003	     -9.11749940888660326266	     34.09699638443957070422	      1.03696089063659235840	     86.61758796707380270163	      0.00000000000000000000	      0.00000000000000000000	     54.10181382844492503637	     -0.73224564116299661887	     38.65349736390723478507	      0.62829199801991597596	      2.74530755244338786625	      0.00000000000000000000	      0.00000000000000000000
      5.03000000000000024869	     45.86308760345436752459	     -1.61936945868981752028	   -175.91505227716129411419	      0.42258473921217809544	      0.59796261483119528268	     -0.62183009453895432550	    113.44116313097974568791	    -10.81132014964657805933	      4.95429061678262527835	     80.36725152985232512037	      1.40267314997437297919	     17.25901677038971371303	      0.00000000000000000000	      0.00000000000000000000	    110.85553541768021545977	     -5.55196995521082037328	     -0.36476090545786526986	     77.43061613096286066593	      1.35141919333313476059	     15.02202924411882989375	      0.00000000000000000000	      0.00000000000000000000	    -18.54694474241306778595	      0.03480098533707795538	      1.25786793746575820130	     61.84035144686149010340	     -9.11885325966133564179	     34.12968113020050964224	      1.03720894140789865467	     86.57880621801062659415	      0.00000000000000000000	      0.00000000000000000000	     53.99506104700028430443	     -0.75678193788307979162	     39.49165812950010234772	      0.62420816450578509027	      2.74128586199194357320	      0.00000000000000000000	      0.00000000000000000000
